<svg width="200" height="200" viewBox="0 0 200 200" xmlns="http://www.w3.org/2000/svg">
  <!-- Background orange square -->
  <rect width="200" height="200" fill="#FF8C00"/>

  <!-- Simplified fruit logo -->
  <circle cx="100" cy="100" r="60" fill="white"/>
  <path d="M100 50 C 140 70 140 130 100 150 C 60 130 60 70 100 50" fill="#FF8C00"/>

  <!-- Leaf -->
  <path d="M100 45 C 95 35 85 40 90 50 C 95 45 100 45 100 45" fill="#4CAF50"/>

  <!-- Simple wordmark - using paths instead of text elements for better compatibility -->
  <path d="M30 170 L30 160 L40 160 L40 170 L30 170 M42 170 L42 160 L45 160 L48 166 L48 160 L50 160 L50 170 L47 170 L44 164 L44 170 L42 170 M52 170 L52 160 L60 160 L60 162 L54 162 L54 164 L59 164 L59 166 L54 166 L54 168 L60 168 L60 170 L52 170 M62 170 L62 160 L70 160 L70 162 L65 162 L65 164 L69 164 L69 166 L65 166 L65 170 L62 170 M72 170 L72 160 L80 160 L80 162 L75 162 L75 164 L79 164 L79 166 L75 166 L75 168 L80 168 L80 170 L72 170" fill="white"/>

  <path d="M120 170 L120 160 L128 160 L128 162 L123 162 L123 164 L127 164 L127 166 L123 166 L123 170 L120 170 M130 170 L130 160 L138 160 L138 162 L133 162 L133 164 L137 164 L137 166 L133 166 L133 168 L138 168 L138 170 L130 170 M140 170 L140 160 L148 160 L148 162 L143 162 L143 170 L140 170 M150 170 L150 160 L153 160 L156 166 L156 160 L158 160 L158 170 L155 170 L152 164 L152 170 L150 170" fill="white"/>
</svg>
